HIERARCHY
ROOT pelvis
{
  OFFSET 0 100 0
  CHANNELS 6 Xposition Yposition Zposition Zrotation Xrotation Yrotation
  JOINT pelvis_right_femur
  {
    OFFSET -10.78128 -3.44521 -0.5502486
    CHANNELS 3 Zrotation Xrotation Yrotation
    JOINT right_femur_tibia
    {
      OFFSET -0.8047443 -44.0398 -0.1307829
      CHANNELS 3 Zrotation Xrotation Yrotation
      JOINT right_tibia_foot
      {
        OFFSET 3.006224 -47.83518 -5
        CHANNELS 3 Zrotation Xrotation Yrotation
        End Site
        {
          OFFSET 0 -5 15
        }
      }
    }
  }
  JOINT pelvis_left_femur
  {
    OFFSET 10.78128 -3.44521 -0.5502486
    CHANNELS 3 Zrotation Xrotation Yrotation
    JOINT left_femur_tibia
    {
      OFFSET 0.8047443 -44.0398 -0.1307829
      CHANNELS 3 Zrotation Xrotation Yrotation
      JOINT left_tibia_foot
      {
        OFFSET -4.370144 -48.10324 -4.275266
        CHANNELS 3 Zrotation Xrotation Yrotation
        End Site
        {
          OFFSET 0 -5 15
        }
      }
    }
  }
  JOINT pelvis_spine1
  {
    OFFSET 0 6.468898 -3.129235
    CHANNELS 3 Zrotation Xrotation Yrotation
    JOINT spine1
    {
      OFFSET 0 23.15396 4.99043
      CHANNELS 3 Zrotation Xrotation Yrotation
      JOINT spine2
      {
        OFFSET 0 20.79997 -5.064912
        CHANNELS 3 Zrotation Xrotation Yrotation
        JOINT neck
        {
          OFFSET 0 14.38658 9.616178
          CHANNELS 3 Zrotation Xrotation Yrotation
          End Site
          {
            OFFSET 0 20 0
          }
        }
      }
      JOINT right_manubrium
      {
        OFFSET -5.722621 16.35077 3.967754
        CHANNELS 3 Zrotation Xrotation Yrotation
        JOINT right_clavicle
        {
          OFFSET -13.16364 1.694482 -4.693211
          CHANNELS 3 Zrotation Xrotation Yrotation
          JOINT right_humerus
          {
            OFFSET -28.5034 -0.3100689 -2.792744
            CHANNELS 3 Zrotation Xrotation Yrotation
            JOINT right_radius
            {
              OFFSET -25.15693 0.02248979 -1.271978
              CHANNELS 3 Zrotation Xrotation Yrotation
              End Site
              {
                OFFSET -15 0 0
              }
            }
          }
        }
      }
      JOINT left_manubrium
      {
        OFFSET 5.722621 16.35077 3.967754
        CHANNELS 3 Zrotation Xrotation Yrotation
        JOINT left_clavicle
        {
          OFFSET 13.16364 1.694482 -4.693211
          CHANNELS 3 Zrotation Xrotation Yrotation
          JOINT left_humerus
          {
            OFFSET 29.39168 -1.063119 -2.237045
            CHANNELS 3 Zrotation Xrotation Yrotation
            JOINT left_radius
            {
              OFFSET 24.59957 -0.9528479 0.9047498
              CHANNELS 3 Zrotation Xrotation Yrotation
              End Site
              {
                OFFSET 15 -0 -0
              }
            }
          }
        }
      }
    }
  }
}
MOTION
Frames: 9
Frame Time: 0.0416666666667
0 103.5113 0 0.3536071 -0.8331636 0.1351668 3.718314 -18.34233 7.71578 -0 36.04707 -0 -6.227895 -13.98088 -2.195256 -6.544882 8.091451 -20.23423 -0 6.813771 -0 11.60934 -14.39135 25.93495 -2.980375 -3.706044 4.926471 2.32708 11.02646 -7.77541 1.380355 21.78961 6.572252 2.663018 -24.85386 9.575093 5.651504 -20.74871 12.05704 86.157 33.56384 -18.39163 -0 0 15.36367 -9.430423 9.694795 5.305881 6.26812 -21.28949 -1.96497 -91.31884 21.02201 19.58144 0 0 -15.91401 15.81965 15.4871 -3.908079
0.342241 103.7383 2.303659 0.1347974 -0.8046377 0.2680355 4.077486 -19.78004 7.503012 -0 35.03782 -0 -6.270534 -12.90433 -2.298723 -6.347047 9.07742 -20.1136 -0 6.74643 -0 10.47965 -15.50465 25.53311 -2.868778 -3.280521 4.570546 2.408303 10.7244 -7.794211 1.393187 21.77874 6.725162 2.787676 -24.98278 9.654755 5.31201 -20.43885 11.92457 86.52224 33.15209 -18.77936 -0 0 15.05409 -9.562874 9.264232 5.305169 6.380403 -21.18225 -1.962568 -91.41052 21.76597 19.41069 0 0 -16.14793 14.74532 15.64887 -2.845414
0.7070494 103.8681 4.104369 0.7819568 2.019584 0.3186162 4.447546 -23.41912 8.866166 -0 30.94862 -0 -4.096553 -16.26506 -1.761116 -7.648884 9.631353 -22.1117 -0 3.82509 -0 14.07958 -16.67584 28.38881 -4.231924 -3.610528 5.334853 3.179864 9.797361 -8.066528 1.429534 21.20927 7.066814 3.218067 -25.74052 10.14385 7.293418 -19.57819 11.80244 84.29221 38.15667 -18.7987 -0 0 15.58744 -6.368936 9.349969 4.1187 7.146806 -20.33785 -0.4856226 -91.66482 22.20455 19.23267 0 0 -17.55702 16.43485 14.86778 -4.501821
1.066446 103.7609 6.235936 0.3521594 3.127805 0.4817578 5.553451 -27.68393 8.770481 -0 26.90416 -0 -3.783509 -13.72935 -1.624348 -7.429466 11.58739 -21.68078 -0 3.049946 -0 12.40575 -19.46618 27.53416 -4.147219 -2.831538 4.939328 3.53827 9.20179 -8.249024 1.399466 20.59492 7.538229 3.58601 -26.64968 10.47527 6.898754 -19.08531 11.55977 84.93138 38.42282 -19.84554 -0 0 15.1777 -6.078176 8.812627 4.034549 7.5627 -20.2855 -0.1327985 -91.61298 23.08689 18.97523 0 0 -19.2456 14.80759 14.15529 -2.886313
1.417162 103.4864 8.971556 -0.2235224 3.932148 0.7582995 6.589065 -30.96389 8.086363 -0 22.48277 -0 -4.078153 -10.25112 -1.100929 -6.982537 12.66464 -20.11218 -0 4.014822 -0 10.89029 -20.9231 25.89831 -3.712185 -2.295908 4.604515 3.774116 9.239269 -8.508766 1.259514 19.99057 7.948 3.877117 -27.42132 10.62751 6.242448 -18.77587 11.55768 85.98401 37.90092 -20.93288 -0 0 14.18968 -6.691212 8.877894 4.196982 8.06466 -21.00807 -0.05351618 -90.85319 22.08952 17.96697 0 0 -21.0698 15.38814 13.0058 -3.895048
1.762814 103.1599 12.42493 -0.9555518 4.473968 1.163336 7.651218 -33.45701 7.518933 -0 19.11013 -0 -4.879039 -6.784336 -0.8041422 -6.354739 13.78849 -18.41411 -0 6.395059 -0 8.175313 -21.86641 23.13925 -2.940342 -1.787496 4.185763 3.904569 9.30534 -8.778468 1.072541 19.36962 8.290087 4.053924 -28.22566 10.65735 5.378366 -18.62001 11.54727 87.51911 37.00038 -22.21218 -0 0 13.16764 -7.422336 8.899877 4.495044 8.138071 -21.72681 -0.2313764 -90.14576 21.56983 17.42572 0 0 -23.0244 14.58933 11.87249 -3.207326
2.100464 102.8948 16.69044 -1.714302 4.619566 1.644327 8.547128 -34.45657 6.74576 -0 16.33726 -0 -6.088986 -3.606044 -0.4698944 -5.650878 14.35396 -16.40277 -0 10.95876 -0 5.213163 -21.45582 19.89215 -1.918609 -1.5097 3.837661 3.915699 9.62901 -9.056672 0.8311636 18.90051 8.516087 4.114391 -28.81386 10.5053 4.38494 -18.54877 11.62344 89.32032 35.7127 -23.53977 -0 0 11.86766 -8.485822 9.093467 4.868668 7.998751 -22.6329 -0.6371944 -89.31077 20.6226 16.87508 0 0 -24.82131 14.10275 10.76536 -2.842289
2.443608 102.8139 21.71707 -2.348825 4.504228 2.135829 9.200075 -34.0977 6.005848 -0 14.39573 -0 -7.349383 -1.262425 -0.2403957 -5.038931 14.41342 -14.56581 -0 16.90484 -0 2.405795 -20.04211 16.75055 -0.8727438 -1.44378 3.645522 3.848114 10.02512 -9.29289 0.5872943 18.57918 8.616765 4.078498 -29.20132 10.22225 3.480393 -18.55459 11.72612 91.06443 34.47432 -24.77108 -0 0 10.61274 -9.536601 9.320697 5.274625 7.60755 -23.42109 -1.165132 -88.60449 19.81895 16.6546 0 0 -26.35471 13.30334 9.823856 -1.988736
2.798639 103.0246 27.44822 -2.818399 4.032661 2.560351 9.598779 -32.32138 5.184494 -0 12.97793 -0 -8.61229 0.3964981 -0.1139287 -4.512252 13.83781 -12.81718 -0 24.52942 -0 -0.06491802 -17.66368 13.96208 0.1714479 -1.583383 3.640862 3.690581 10.5612 -9.481577 0.3626123 18.44341 8.582965 3.961724 -29.32606 9.811797 2.586918 -18.64325 11.85991 92.77136 33.09838 -25.93259 -0 0 9.368195 -10.74831 9.582971 5.719297 7.039669 -24.15405 -1.825246 -88.01657 19.0207 16.67356 0 0 -27.56579 12.43031 9.090829 -0.976889
